<svg xmlns="http://www.w3.org/2000/svg" viewBox="0 0 512 512">
  <defs>
    <linearGradient id="grad" x1="0%" y1="0%" x2="100%" y2="100%">
      <stop offset="0%" style="stop-color:#8b5a5a;stop-opacity:1" />
      <stop offset="100%" style="stop-color:#6b4a4a;stop-opacity:1" />
    </linearGradient>
  </defs>
  <circle cx="256" cy="256" r="256" fill="url(#grad)"/>
  <path d="M256 128c-35.3 0-64 28.7-64 64v64c0 35.3 28.7 64 64 64s64-28.7 64-64v-64c0-35.3-28.7-64-64-64zm0 160c-17.6 0-32-14.4-32-32v-64c0-17.6 14.4-32 32-32s32 14.4 32 32v64c0 17.6-14.4 32-32 32z" fill="#fff" opacity="0.9"/>
  <path d="M352 256v16c0 52.9-43.1 96-96 96s-96-43.1-96-96v-16h-32v16c0 63.3 47.4 115.5 108.5 123.3V416h-52.5v32h137v-32h-52.5v-36.7c61.1-7.8 108.5-60 108.5-123.3v-16h-32z" fill="#fff" opacity="0.9"/>
  <path d="M256 384c-61.9 0-112-50.1-112-112h32c0 44.1 35.9 80 80 80s80-35.9 80-80h32c0 61.9-50.1 112-112 112z" fill="#c9a962"/>
</svg>
